<svg width="718" height="165" viewBox="0 0 718 165" fill="none" xmlns="http://www.w3.org/2000/svg">
<path d="M35.646 87.6037C35.646 87.6037 48.77 99.9367 58.745 87.2297C68.721 74.5227 79.22 87.6037 79.22 87.6037C79.22 87.6037 91.295 116.381 103.368 87.2297C115.443 58.0787 125.942 87.2297 125.942 87.2297C125.942 87.2297 138.804 116.195 147.992 87.2297C157.179 58.2647 171.353 83.3057 171.353 87.2297C171.353 91.1537 185.002 116.381 189.203 87.2297C193.402 58.0787 207.314 -3.96128 215.714 87.2297C224.114 178.421 240.389 87.6037 240.389 87.6037C240.389 87.6037 247.213 54.3407 256.138 87.2297C265.063 120.119 270.662 217.789 285.012 87.6037C285.012 87.6037 290.261 52.0987 304.961 87.2297C319.66 122.361 323.86 87.0197 324.56 87.2297C325.26 87.4397 337.86 -14.6753 349.059 87.2297C349.059 87.2297 359.034 174.435 370.847 87.6037C382.658 0.771713 384.059 -50.0563 397.358 87.2297C397.358 87.2297 405.057 116.88 417.657 87.2297C430.257 57.5797 437.256 80.5017 437.956 87.2297C438.657 93.9577 454.055 110.775 458.955 87.4157C463.854 64.0577 479.955 75.0207 484.154 87.2297C488.354 99.4377 500.252 103.923 500.954 87.2297C501.654 70.5367 517.754 -95.9013 529.653 87.2297C529.653 87.2297 543.653 257.654 554.851 87.6037C554.851 87.6037 561.151 47.6137 570.95 87.2297C570.95 87.2297 584.949 171.695 594.05 87.2297C594.05 87.2297 606.65 -25.6393 619.249 87.2297C619.249 87.2297 624.848 117.877 635.348 87.2297C645.847 56.5837 655.646 79.0067 661.246 87.2297C666.848 95.4527 673.846 91.9627 680.146 87.2297C686.446 82.4967 692.046 78.0107 703.945 87.2297" stroke="#1B120F" stroke-width="3.074" stroke-miterlimit="10"/>
<path d="M29.4301 87.6037C29.4301 87.6037 42.5551 99.9367 52.5301 87.2297C62.5051 74.5227 73.0041 87.6037 73.0041 87.6037C73.0041 87.6037 85.0791 116.381 97.1531 87.2297C109.228 58.0787 119.727 87.2297 119.727 87.2297C119.727 87.2297 132.588 116.195 141.776 87.2297C150.964 58.2647 165.137 83.3057 165.137 87.2297C165.137 91.1537 178.786 116.381 182.987 87.2297C187.186 58.0787 201.098 -3.96128 209.499 87.2297C217.898 178.421 234.173 87.6037 234.173 87.6037C234.173 87.6037 240.997 54.3407 249.922 87.2297C258.847 120.119 264.446 217.789 278.796 87.6037C278.796 87.6037 284.046 52.0987 298.745 87.2297C313.444 122.361 317.644 87.0197 318.344 87.2297C319.045 87.4397 331.644 -14.6753 342.843 87.2297C342.843 87.2297 352.819 174.435 364.631 87.6037C376.442 0.771713 377.843 -50.0563 391.141 87.2297C391.141 87.2297 398.842 116.88 411.441 87.2297C424.04 57.5797 431.04 80.5017 431.74 87.2297C432.439 93.9577 447.839 110.775 452.739 87.4157C457.639 64.0577 473.738 75.0207 477.938 87.2297C482.137 99.4377 494.037 103.923 494.737 87.2297C495.437 70.5367 511.538 -95.9013 523.437 87.2297C523.437 87.2297 537.436 257.654 548.635 87.6037C548.635 87.6037 554.935 47.6137 564.735 87.2297C564.735 87.2297 578.734 171.695 587.834 87.2297C587.834 87.2297 600.434 -25.6393 613.033 87.2297C613.033 87.2297 618.633 117.877 629.132 87.2297C639.632 56.5837 649.431 79.0067 655.03 87.2297C660.632 95.4527 667.63 91.9627 673.928 87.2297C680.229 82.4967 685.828 78.0107 697.729 87.2297" stroke="white" stroke-width="3.074" stroke-miterlimit="10"/>
<path d="M0 87.6037L717.646 87.2297" stroke="#F89D13" stroke-width="3.074" stroke-miterlimit="10"/>
<path d="M23.624 87.6037C23.624 87.6037 36.748 99.9367 46.724 87.2297C56.699 74.5227 67.198 87.6037 67.198 87.6037C67.198 87.6037 79.272 116.381 91.347 87.2297C103.421 58.0787 113.921 87.2297 113.921 87.2297C113.921 87.2297 126.783 116.195 135.97 87.2297C145.158 58.2647 159.331 83.3057 159.331 87.2297C159.331 91.1537 172.98 116.381 177.181 87.2297C181.381 58.0787 195.292 -3.96128 203.693 87.2297C212.093 178.421 228.367 87.6037 228.367 87.6037C228.367 87.6037 235.191 54.3407 244.116 87.2297C253.041 120.119 258.64 217.789 272.99 87.6037C272.99 87.6037 278.24 52.0987 292.939 87.2297C307.638 122.361 311.837 87.0197 312.539 87.2297C313.238 87.4397 325.838 -14.6753 337.038 87.2297C337.038 87.2297 347.012 174.435 358.825 87.6037C370.635 0.771713 372.037 -50.0563 385.336 87.2297C385.336 87.2297 393.035 116.88 405.635 87.2297C418.236 57.5797 425.234 80.5017 425.934 87.2297C426.634 93.9577 442.034 110.775 446.933 87.4157C451.833 64.0577 467.933 75.0207 472.132 87.2297C476.332 99.4377 488.231 103.923 488.932 87.2297C489.632 70.5367 505.731 -95.9013 517.631 87.2297C517.631 87.2297 531.63 257.654 542.829 87.6037C542.829 87.6037 549.129 47.6137 558.929 87.2297C558.929 87.2297 572.929 171.695 582.028 87.2297C582.028 87.2297 594.629 -25.6393 607.228 87.2297C607.228 87.2297 612.826 117.877 623.326 87.2297C633.826 56.5827 643.625 79.0067 649.223 87.2297C654.825 95.4527 661.824 91.9627 668.123 87.2297C674.423 82.4967 680.023 78.0107 691.923 87.2297" stroke="#F89D13" stroke-width="3.074" stroke-miterlimit="10"/>
</svg>
