<svg width="717" height="174" viewBox="0 0 717 174" fill="none" xmlns="http://www.w3.org/2000/svg">
<path d="M674.174 104.291L666.906 116.853L657.958 101.374L652.925 125.377L642.301 98.459L633.915 125.377L625.525 103.394L618.256 120.442L609.869 92.178L601.481 124.481L594.771 104.291L584.146 119.097L576.317 75.129L561.218 129.864L552.831 87.019L543.882 124.928L537.173 98.907L527.669 115.058L519.281 63.015L512.01 128.518L503.623 95.318L496.352 107.88L487.407 59.875L480.697 140.182L473.427 93.075L462.244 115.956L457.771 72.886L454.414 145.117L446.585 29.367L439.314 151.848L428.689 63.464L421.979 119.097L412.473 47.313L407.443 150.501L397.377 58.978L388.988 142.874L379.483 17.702L373.33 166.652L364.664 2L356.556 172.036L347.609 25.329L340.339 149.155L333.07 79.616L324.123 143.323L316.853 41.481L307.906 122.686L298.96 59.427L291.13 160.821L283.862 31.162L275.474 142.426L272.677 58.53L265.967 117.751L257.021 88.588L249.751 154.092L241.363 53.594L234.653 107.88L225.706 92.626L216.759 137.491L210.607 59.875L200.542 113.713L192.154 99.356L184.886 124.928L176.499 83.653L168.11 134.35L151.334 71.54L143.505 121.34L135.677 104.964L127.289 121.788L120.579 91.729L110.513 118.648L103.803 104.964L94.855 124.928L87.587 84.999L79.2 124.928L68.014 101.374L62.423 121.788L54.594 104.291H674.174Z" stroke="#F89D13" stroke-width="2.96" stroke-miterlimit="10" stroke-linecap="round" stroke-linejoin="round"/>
<path d="M714.962 104.739L667.992 104.291L660.723 116.853L651.776 101.374L646.744 125.377L636.12 98.459L627.73 125.377L619.343 103.394L612.074 120.442L603.687 92.178L595.298 124.481L588.588 104.291L577.963 119.097L570.135 75.129L555.036 129.864L546.65 87.019L537.701 124.928L530.99 98.907L521.487 115.058L513.098 63.015L505.828 128.518L497.441 95.318L490.172 107.88L481.224 59.875L474.516 140.182L467.245 93.075L456.061 115.956L451.587 72.886L448.231 145.117L440.404 29.367L433.132 151.848L422.508 63.464L415.798 119.097L406.292 47.313L401.26 150.501L391.196 58.978L382.805 142.874L373.302 17.702L367.148 166.652L358.48 2L350.374 172.036L341.426 25.329L334.157 149.155L326.888 79.616L317.94 143.323L310.671 41.481L301.725 122.686L292.778 59.427L284.948 160.821L277.68 31.162L269.292 142.426L266.495 58.53L259.785 117.751L250.839 88.588L243.568 154.092L235.181 53.594L228.47 107.88L219.523 92.626L210.577 137.491L204.426 59.875L194.36 113.713L185.972 99.356L178.703 124.928L170.316 83.653L161.928 134.35L145.151 71.54L137.323 121.34L129.495 104.964L121.106 121.788L114.396 91.729L104.33 118.648L97.62 104.964L88.673 124.928L81.404 84.999L73.017 124.928L61.832 101.374L56.24 121.788L48.413 104.291H2L714.962 104.739Z" stroke="white" stroke-width="2.96" stroke-miterlimit="10" stroke-linecap="round" stroke-linejoin="round"/>
</svg>
